<!DOCTYPE svg PUBLIC "-//W3C//DTD SVG 1.1//EN" "http://www.w3.org/Graphics/SVG/1.1/DTD/svg11.dtd">
<!-- Uploaded to: SVG Repo, www.svgrepo.com, Transformed by: SVG Repo Mixer Tools -->
<svg width="64px" height="64px" viewBox="0 0 24 24" xmlns="http://www.w3.org/2000/svg" fill="#748C70">
<g id="SVGRepo_bgCarrier" stroke-width="0"/>
<g id="SVGRepo_tracerCarrier" stroke-linecap="round" stroke-linejoin="round"/>
<g id="SVGRepo_iconCarrier"> <g> <path fill="none" d="M0 0H24V24H0z"/> <path d="M21 3v2c0 9.627-5.373 14-12 14H7.098c.212-3.012 1.15-4.835 3.598-7.001 1.204-1.065 1.102-1.68.509-1.327-4.084 2.43-6.112 5.714-6.202 10.958L5 22H3c0-1.363.116-2.6.346-3.732C3.116 16.974 3 15.218 3 13 3 7.477 7.477 3 13 3c2 0 4 1 8 0z"/> </g> </g>
</svg>